<?xml version="1.0" standalone="no"?>
<!DOCTYPE svg PUBLIC "-//W3C//DTD SVG 20010904//EN"
 "http://www.w3.org/TR/2001/REC-SVG-20010904/DTD/svg10.dtd">
<svg version="1.0" xmlns="http://www.w3.org/2000/svg"
 width="1024.000000pt" height="1024.000000pt" viewBox="0 0 1024.000000 1024.000000"
 preserveAspectRatio="xMidYMid meet">
<metadata>
Created by potrace 1.11, written by Peter Selinger 2001-2013
</metadata>
<g transform="translate(0.000000,1024.000000) scale(0.100000,-0.100000)"
fill="#000000" stroke="none">
<path d="M5057 10234 c-1 -1 -81 -5 -177 -8 -96 -3 -188 -8 -205 -10 -16 -2
-68 -7 -115 -10 -47 -4 -96 -8 -110 -11 -27 -5 -215 -32 -265 -39 -16 -2 -50
-9 -75 -14 -25 -6 -60 -14 -78 -17 -220 -38 -605 -157 -887 -273 -155 -64
-515 -240 -535 -263 -3 -3 -32 -20 -65 -38 -113 -63 -517 -340 -555 -381 -3
-3 -18 -16 -35 -29 -27 -21 -52 -41 -179 -151 -157 -134 -426 -406 -542 -546
-22 -26 -48 -57 -59 -70 -11 -12 -31 -35 -46 -51 -94 -106 -339 -456 -446
-638 -103 -174 -224 -414 -287 -570 -20 -49 -41 -99 -46 -110 -10 -23 -51
-135 -55 -150 -1 -5 -5 -17 -8 -25 -40 -107 -139 -442 -152 -520 -3 -19 -8
-42 -10 -50 -2 -8 -6 -26 -9 -40 -2 -14 -11 -59 -19 -100 -9 -41 -18 -95 -21
-120 -3 -25 -8 -56 -11 -69 -2 -13 -7 -49 -10 -80 -4 -31 -8 -63 -10 -71 -7
-27 -23 -222 -31 -380 -11 -212 -6 -530 11 -730 1 -20 6 -76 10 -125 4 -49 9
-98 11 -109 2 -12 6 -34 9 -51 2 -16 6 -47 9 -67 3 -21 8 -55 11 -75 14 -97
60 -318 91 -433 14 -52 27 -102 29 -110 2 -8 4 -15 5 -15 1 0 4 -11 6 -24 9
-49 115 -355 170 -489 51 -124 180 -396 237 -497 48 -85 81 -141 102 -175 73
-114 199 -306 205 -310 3 -3 17 -21 30 -40 13 -19 27 -37 30 -40 3 -3 30 -39
61 -81 132 -177 416 -486 619 -674 86 -80 306 -267 365 -310 22 -17 42 -32 45
-35 3 -3 21 -17 40 -30 38 -27 41 -29 85 -63 44 -35 323 -217 343 -224 9 -4
19 -9 22 -12 5 -6 51 -32 105 -59 17 -9 32 -18 35 -22 6 -9 294 -148 380 -185
36 -15 73 -31 84 -37 32 -17 425 -155 461 -162 11 -2 69 -18 129 -35 104 -30
408 -96 484 -106 20 -2 84 -11 142 -19 142 -20 209 -27 445 -42 148 -10 587
-4 730 10 33 3 94 8 135 11 41 4 86 8 100 10 14 2 61 9 105 15 113 16 137 20
165 25 14 3 36 7 50 10 136 26 255 53 378 87 81 22 152 41 157 42 6 2 17 6 25
9 8 3 24 8 35 10 105 27 449 165 635 254 176 85 490 264 498 285 2 4 8 8 14 8
13 0 171 108 278 190 14 11 57 43 95 72 39 29 72 55 75 58 3 3 50 44 105 90
283 239 599 570 805 845 41 55 80 106 87 113 7 7 63 90 126 185 179 272 312
520 429 802 51 121 151 400 168 465 4 19 22 85 39 145 26 91 44 170 76 325 2
8 8 35 13 60 6 25 13 70 17 100 3 30 8 69 12 85 3 17 7 41 8 55 1 14 5 43 8
65 9 55 19 165 33 370 5 74 5 542 0 610 -2 28 -7 91 -10 140 -9 119 -16 194
-21 225 -2 14 -6 45 -10 70 -3 25 -8 56 -10 70 -2 14 -7 45 -10 70 -4 25 -13
77 -22 115 -8 39 -17 86 -20 105 -4 27 -59 251 -77 315 -2 6 -6 24 -10 40 -26
104 -137 410 -221 610 -24 55 -149 309 -183 370 -122 220 -325 526 -459 690
-5 6 -17 22 -28 36 -21 27 -87 104 -196 228 -78 89 -274 289 -374 381 -93 86
-127 116 -301 260 -23 19 -82 64 -131 100 -48 36 -90 67 -93 70 -8 9 -273 185
-285 189 -5 2 -17 9 -25 16 -8 7 -44 28 -80 48 -36 19 -90 50 -120 67 -79 47
-318 161 -440 210 -58 23 -114 46 -125 51 -11 5 -47 18 -80 29 -33 12 -69 25
-80 29 -30 13 -172 58 -240 76 -106 30 -249 67 -275 71 -14 3 -56 11 -95 20
-102 21 -116 24 -154 30 -19 2 -46 6 -60 9 -97 17 -241 35 -312 40 -46 4 -97
8 -114 10 -52 7 -502 24 -508 19z m-970 -2577 c37 -20 60 -50 67 -87 2 -14 5
-427 5 -917 l1 -893 960 0 960 0 0 903 c0 1017 -5 952 76 993 41 20 53 21 570
20 582 -1 567 0 610 -63 19 -27 19 -89 20 -2483 1 -2380 1 -2456 -17 -2492
-38 -75 -19 -73 -619 -73 -580 0 -571 -1 -611 55 -10 14 -21 36 -23 50 -3 14
-5 427 -5 918 l-1 892 -960 0 -960 0 -1 -882 c0 -486 -2 -898 -4 -917 -1 -18
-12 -45 -22 -60 -43 -57 -31 -56 -613 -56 -595 0 -580 -1 -617 68 -17 30 -18
159 -19 2474 -1 2544 -2 2490 39 2530 37 38 74 40 610 39 478 -1 525 -3 554
-19z"/>
</g>
</svg>
