<?xml version="1.0" standalone="no"?>
<!DOCTYPE svg PUBLIC "-//W3C//DTD SVG 20010904//EN"
 "http://www.w3.org/TR/2001/REC-SVG-20010904/DTD/svg10.dtd">
<svg version="1.0" xmlns="http://www.w3.org/2000/svg"
 width="1024.000000pt" height="1024.000000pt" viewBox="0 0 1024.000000 1024.000000"
 preserveAspectRatio="xMidYMid meet">
<metadata>
Created by potrace 1.11, written by Peter Selinger 2001-2013
</metadata>
<g transform="translate(0.000000,1024.000000) scale(0.100000,-0.100000)"
fill="#000000" stroke="none">
<path d="M0 5120 l0 -5120 5120 0 5120 0 0 5120 0 5120 -5120 0 -5120 0 0
-5120z m4878 5103 c-27 -2 -69 -2 -95 0 -27 2 -5 3 47 3 52 0 74 -1 48 -3z
m570 0 c-21 -2 -57 -2 -80 0 -24 2 -7 4 37 4 44 0 63 -2 43 -4z m-750 -10
c-16 -2 -40 -2 -55 0 -16 2 -3 4 27 4 30 0 43 -2 28 -4z m900 0 c-15 -2 -42
-2 -60 0 -18 2 -6 4 27 4 33 0 48 -2 33 -4z m-1020 -10 c-16 -2 -40 -2 -55 0
-16 2 -3 4 27 4 30 0 43 -2 28 -4z m1150 0 c-16 -2 -40 -2 -55 0 -16 2 -3 4
27 4 30 0 43 -2 28 -4z m-1260 -10 c-10 -2 -26 -2 -35 0 -10 3 -2 5 17 5 19 0
27 -2 18 -5z m1345 0 c-7 -2 -21 -2 -30 0 -10 3 -4 5 12 5 17 0 24 -2 18 -5z
m-1415 -10 c-10 -2 -26 -2 -35 0 -10 3 -2 5 17 5 19 0 27 -2 18 -5z m1480 0
c-10 -2 -26 -2 -35 0 -10 3 -2 5 17 5 19 0 27 -2 18 -5z m-1550 -10 c-10 -2
-26 -2 -35 0 -10 3 -2 5 17 5 19 0 27 -2 18 -5z m1620 0 c-10 -2 -26 -2 -35 0
-10 3 -2 5 17 5 19 0 27 -2 18 -5z m-1685 -10 c-7 -2 -21 -2 -30 0 -10 3 -4 5
12 5 17 0 24 -2 18 -5z m1755 0 c-10 -2 -26 -2 -35 0 -10 3 -2 5 17 5 19 0 27
-2 18 -5z m-1825 -10 c-7 -2 -19 -2 -25 0 -7 3 -2 5 12 5 14 0 19 -2 13 -5z
m1880 0 c-7 -2 -19 -2 -25 0 -7 3 -2 5 12 5 14 0 19 -2 13 -5z m-1930 -10 c-7
-2 -19 -2 -25 0 -7 3 -2 5 12 5 14 0 19 -2 13 -5z m1980 0 c-7 -2 -19 -2 -25
0 -7 3 -2 5 12 5 14 0 19 -2 13 -5z m-2030 -10 c-7 -2 -19 -2 -25 0 -7 3 -2 5
12 5 14 0 19 -2 13 -5z m2080 0 c-7 -2 -19 -2 -25 0 -7 3 -2 5 12 5 14 0 19
-2 13 -5z m-2130 -10 c-7 -2 -19 -2 -25 0 -7 3 -2 5 12 5 14 0 19 -2 13 -5z
m2180 0 c-7 -2 -19 -2 -25 0 -7 3 -2 5 12 5 14 0 19 -2 13 -5z m-2230 -10 c-7
-2 -19 -2 -25 0 -7 3 -2 5 12 5 14 0 19 -2 13 -5z m2280 0 c-7 -2 -19 -2 -25
0 -7 3 -2 5 12 5 14 0 19 -2 13 -5z m-2343 -13 c-14 -4 -34 -8 -45 -8 -16 0
-15 2 5 8 14 4 34 8 45 8 16 0 15 -2 -5 -8z m2420 0 c20 -6 21 -8 5 -8 -11 0
-31 4 -45 8 -20 6 -21 8 -5 8 11 0 31 -4 45 -8z m-2505 -20 c-11 -5 -27 -9
-35 -9 -9 0 -8 4 5 9 11 5 27 9 35 9 9 0 8 -4 -5 -9z m2580 0 c13 -5 14 -9 5
-9 -8 0 -24 4 -35 9 -13 5 -14 9 -5 9 8 0 24 -4 35 -9z m-2638 -16 c-3 -3 -12
-4 -19 -1 -8 3 -5 6 6 6 11 1 17 -2 13 -5z m2690 0 c-3 -3 -12 -4 -19 -1 -8 3
-5 6 6 6 11 1 17 -2 13 -5z m-2757 -17 c-724 -218 -1246 -490 -1800 -939 -51
-42 -65 -51 -35 -23 71 67 297 236 455 342 361 240 742 425 1164 562 194 63
213 69 236 69 8 0 -1 -5 -20 -11z m2874 -12 c49 -13 92 -27 95 -31 3 -4 -3 -4
-14 -1 -11 3 -56 15 -100 27 -75 21 -100 30 -79 30 5 0 49 -11 98 -25z m226
-74 c455 -153 919 -401 1332 -712 120 -91 308 -246 308 -255 0 -3 -51 37 -112
89 -465 387 -1009 696 -1535 871 -62 21 -113 40 -113 42 0 6 -2 7 120 -35z
m-4990 -924 c0 -2 -12 -14 -27 -28 l-28 -24 24 28 c23 25 31 32 31 24z m-60
-50 c0 -1 -24 -25 -52 -52 l-53 -50 50 53 c46 48 55 57 55 49z m6755 -47 c21
-22 37 -40 34 -40 -3 0 -23 18 -44 40 -21 22 -37 40 -34 40 3 0 23 -18 44 -40z
m-6885 -73 c0 -1 -30 -32 -67 -67 l-68 -65 65 68 c60 62 70 72 70 64z m7030
-62 c35 -36 62 -65 59 -65 -2 0 -34 29 -69 65 -35 36 -62 65 -59 65 2 0 34
-29 69 -65z m-7180 -88 c0 -1 -28 -29 -62 -62 l-63 -60 60 63 c55 58 65 67 65
59z m7325 -57 c33 -33 57 -60 54 -60 -2 0 -31 27 -64 60 -33 33 -57 60 -54 60
2 0 31 -27 64 -60z m-7465 -93 c0 -1 -24 -25 -52 -52 l-53 -50 50 53 c46 48
55 57 55 49z m7630 -84 c0 -8 -9 0 -50 45 l-45 47 48 -45 c26 -24 47 -45 47
-47z m-7730 -26 c0 -2 -12 -14 -27 -28 l-28 -24 24 28 c23 25 31 32 31 24z
m7770 -22 c13 -14 21 -25 18 -25 -2 0 -15 11 -28 25 -13 14 -21 25 -18 25 2 0
15 -11 28 -25z m-7888 -117 c-375 -450 -684 -1008 -868 -1570 -26 -81 -50
-145 -52 -143 -2 2 20 75 49 162 166 499 404 951 733 1388 86 115 194 245 203
245 2 0 -27 -37 -65 -82z m8102 -148 c345 -455 585 -910 755 -1434 32 -100 61
-197 65 -216 l5 -35 -11 35 c-132 413 -190 568 -307 813 -151 317 -386 684
-633 987 -41 49 -50 64 -23 35 26 -27 93 -111 149 -185z m-5446 -497 c-148 -2
-388 -2 -535 0 -148 1 -27 2 267 2 294 0 415 -1 268 -2z m3200 0 c-148 -2
-388 -2 -535 0 -148 1 -27 2 267 2 294 0 415 -1 268 -2z m-4035 -23 c-68 -41
-63 179 -63 -2530 0 -2709 -5 -2489 63 -2530 18 -11 27 -20 21 -20 -19 0 -63
40 -79 70 -13 25 -15 336 -15 2480 0 2144 2 2455 15 2480 16 30 60 70 79 70 6
0 -3 -9 -21 -20z m1141 10 c33 -12 66 -66 65 -105 -1 -19 -3 -23 -6 -10 -2 11
-6 29 -8 41 -6 26 -33 56 -65 71 -31 14 -21 17 14 3z m2060 -9 c-41 -25 -64
-58 -65 -96 -1 -18 -3 -23 -6 -12 -13 49 41 122 92 126 6 1 -4 -8 -21 -18z
m1150 -2 c60 -47 56 148 56 -2529 0 -2144 -2 -2455 -15 -2480 -16 -30 -60 -70
-79 -70 -6 0 3 9 21 20 68 41 63 -179 63 2530 0 2709 5 2489 -63 2530 -18 11
-27 20 -21 20 6 0 23 -9 38 -21z m-7105 -1113 c-6 -26 -13 -45 -16 -43 -2 3 1
26 8 51 6 26 13 45 16 43 2 -3 -1 -26 -8 -51z m-22 -78 c-3 -8 -6 -5 -6 6 -1
11 2 17 5 13 3 -3 4 -12 1 -19z m9890 0 c-3 -8 -6 -5 -6 6 -1 11 2 17 5 13 3
-3 4 -12 1 -19z m-9903 -52 c-3 -15 -8 -25 -11 -23 -2 3 -1 17 3 31 3 15 8 25
11 23 2 -3 1 -17 -3 -31z m9925 -16 c0 -9 -4 -8 -9 5 -5 11 -9 27 -9 35 0 9 4
8 9 -5 5 -11 9 -27 9 -35z m-9942 -52 c-3 -7 -5 -2 -5 12 0 14 2 19 5 13 2 -7
2 -19 0 -25z m9950 0 c-3 -7 -5 -2 -5 12 0 14 2 19 5 13 2 -7 2 -19 0 -25z
m-9963 -62 c-3 -21 -8 -35 -11 -32 -2 2 -1 20 3 40 3 21 8 35 11 32 2 -2 1
-20 -3 -40z m9984 -21 c0 -16 -2 -15 -8 5 -4 14 -8 34 -8 45 0 16 2 15 8 -5 4
-14 8 -34 8 -45z m-10001 -57 c-3 -7 -5 -2 -5 12 0 14 2 19 5 13 2 -7 2 -19 0
-25z m10010 0 c-3 -7 -5 -2 -5 12 0 14 2 19 5 13 2 -7 2 -19 0 -25z m-10020
-50 c-3 -7 -5 -2 -5 12 0 14 2 19 5 13 2 -7 2 -19 0 -25z m10030 0 c-3 -7 -5
-2 -5 12 0 14 2 19 5 13 2 -7 2 -19 0 -25z m-10040 -40 c-3 -8 -6 -5 -6 6 -1
11 2 17 5 13 3 -3 4 -12 1 -19z m10050 -10 c-3 -7 -5 -2 -5 12 0 14 2 19 5 13
2 -7 2 -19 0 -25z m-10060 -45 c-3 -10 -5 -4 -5 12 0 17 2 24 5 18 2 -7 2 -21
0 -30z m10070 -5 c-3 -7 -5 -2 -5 12 0 14 2 19 5 13 2 -7 2 -19 0 -25z
m-10080 -65 c-3 -10 -5 -2 -5 17 0 19 2 27 5 18 2 -10 2 -26 0 -35z m10090 0
c-3 -10 -5 -2 -5 17 0 19 2 27 5 18 2 -10 2 -26 0 -35z m-10100 -70 c-3 -10
-5 -2 -5 17 0 19 2 27 5 18 2 -10 2 -26 0 -35z m10110 0 c-3 -10 -5 -2 -5 17
0 19 2 27 5 18 2 -10 2 -26 0 -35z m-10120 -70 c-3 -10 -5 -2 -5 17 0 19 2 27
5 18 2 -10 2 -26 0 -35z m10130 0 c-3 -10 -5 -2 -5 17 0 19 2 27 5 18 2 -10 2
-26 0 -35z m-10140 -60 c-3 -10 -5 -4 -5 12 0 17 2 24 5 18 2 -7 2 -21 0 -30z
m10150 0 c-3 -10 -5 -4 -5 12 0 17 2 24 5 18 2 -7 2 -21 0 -30z m10 -115 c-2
-18 -4 -6 -4 27 0 33 2 48 4 33 2 -15 2 -42 0 -60z m-10170 -5 c-2 -16 -4 -3
-4 27 0 30 2 43 4 28 2 -16 2 -40 0 -55z m-10 -120 c-2 -16 -4 -3 -4 27 0 30
2 43 4 28 2 -16 2 -40 0 -55z m10190 0 c-2 -16 -4 -3 -4 27 0 30 2 43 4 28 2
-16 2 -40 0 -55z m10 -180 c-2 -27 -3 -5 -3 47 0 52 1 74 3 48 2 -27 2 -69 0
-95z m-10210 5 c-2 -24 -4 -5 -4 42 0 47 2 66 4 43 2 -24 2 -62 0 -85z m0
-575 c-2 -27 -3 -5 -3 47 0 52 1 74 3 48 2 -27 2 -69 0 -95z m10210 -6 c-2
-23 -3 -1 -3 48 0 50 1 68 3 42 2 -26 2 -67 0 -90z m-10200 -139 c-2 -18 -4
-6 -4 27 0 33 2 48 4 33 2 -15 2 -42 0 -60z m10190 0 c-2 -18 -4 -6 -4 27 0
33 2 48 4 33 2 -15 2 -42 0 -60z m-10 -130 c-2 -18 -4 -6 -4 27 0 33 2 48 4
33 2 -15 2 -42 0 -60z m-10170 -5 c-2 -16 -4 -3 -4 27 0 30 2 43 4 28 2 -16 2
-40 0 -55z m10 -80 c-3 -10 -5 -2 -5 17 0 19 2 27 5 18 2 -10 2 -26 0 -35z
m10150 0 c-3 -10 -5 -2 -5 17 0 19 2 27 5 18 2 -10 2 -26 0 -35z m-10140 -70
c-3 -10 -5 -2 -5 17 0 19 2 27 5 18 2 -10 2 -26 0 -35z m10130 0 c-3 -10 -5
-2 -5 17 0 19 2 27 5 18 2 -10 2 -26 0 -35z m-10120 -70 c-3 -10 -5 -2 -5 17
0 19 2 27 5 18 2 -10 2 -26 0 -35z m10110 0 c-3 -10 -5 -2 -5 17 0 19 2 27 5
18 2 -10 2 -26 0 -35z m-10100 -70 c-3 -10 -5 -2 -5 17 0 19 2 27 5 18 2 -10
2 -26 0 -35z m10090 0 c-3 -10 -5 -2 -5 17 0 19 2 27 5 18 2 -10 2 -26 0 -35z
m-10080 -55 c-3 -7 -5 -2 -5 12 0 14 2 19 5 13 2 -7 2 -19 0 -25z m10070 0
c-3 -7 -5 -2 -5 12 0 14 2 19 5 13 2 -7 2 -19 0 -25z m-10060 -50 c-3 -7 -5
-2 -5 12 0 14 2 19 5 13 2 -7 2 -19 0 -25z m10050 0 c-3 -7 -5 -2 -5 12 0 14
2 19 5 13 2 -7 2 -19 0 -25z m-10040 -50 c-3 -7 -5 -2 -5 12 0 14 2 19 5 13 2
-7 2 -19 0 -25z m10030 0 c-3 -7 -5 -2 -5 12 0 14 2 19 5 13 2 -7 2 -19 0 -25z
m-10020 -50 c-3 -7 -5 -2 -5 12 0 14 2 19 5 13 2 -7 2 -19 0 -25z m10010 0
c-3 -7 -5 -2 -5 12 0 14 2 19 5 13 2 -7 2 -19 0 -25z m-10000 -50 c-3 -7 -5
-2 -5 12 0 14 2 19 5 13 2 -7 2 -19 0 -25z m9987 -12 c-3 -21 -8 -35 -11 -32
-2 2 -1 20 3 40 3 21 8 35 11 32 2 -2 1 -20 -3 -40z m-9966 -71 c0 -16 -2 -15
-8 5 -4 14 -8 34 -8 45 0 16 2 15 8 -5 4 -14 8 -34 8 -45z m9949 -7 c-3 -7 -5
-2 -5 12 0 14 2 19 5 13 2 -7 2 -19 0 -25z m-9928 -68 c0 -9 -4 -8 -9 5 -5 11
-9 27 -9 35 0 9 4 8 9 -5 5 -11 9 -27 9 -35z m9910 -4 c-6 -26 -13 -45 -16
-43 -2 3 1 26 8 51 6 26 13 45 16 43 2 -3 -1 -26 -8 -51z m-9902 -38 c-3 -8
-6 -5 -6 6 -1 11 2 17 5 13 3 -3 4 -12 1 -19z m27 -88 c4 -24 3 -29 -3 -15 -4
11 -11 36 -15 55 -4 24 -3 29 3 15 4 -11 11 -36 15 -55z m9830 -34 c-15 -53
-29 -95 -31 -93 -2 3 8 48 23 101 15 52 29 94 32 92 2 -3 -9 -48 -24 -100z
m-9670 -430 c20 -49 34 -91 32 -93 -9 -10 -187 479 -185 510 0 7 26 -64 58
-158 32 -93 75 -210 95 -259z m9597 203 c-121 -358 -315 -750 -534 -1079 -106
-158 -275 -384 -342 -455 -28 -31 -20 -17 22 35 384 474 676 994 847 1508 21
62 40 112 42 109 2 -2 -14 -55 -35 -118z m-9451 -534 c138 -292 378 -663 622
-965 42 -51 51 -65 23 -35 -67 71 -236 297 -342 455 -148 222 -294 488 -394
718 -29 67 -21 65 10 -3 16 -33 52 -109 81 -170z m3635 -254 c-14 -29 -71 -68
-82 -58 -2 3 5 8 16 12 31 10 71 63 72 98 2 30 2 30 6 5 2 -15 -3 -40 -12 -57z
m1966 -7 c8 -10 28 -26 44 -36 27 -18 28 -19 5 -13 -45 13 -81 64 -79 112 1
24 2 23 8 -9 4 -20 14 -45 22 -54z m-2323 -61 c-148 -2 -388 -2 -535 0 -148 1
-27 2 267 2 294 0 415 -1 268 -2z m3200 0 c-148 -2 -388 -2 -535 0 -148 1 -27
2 267 2 294 0 415 -1 268 -2z m-5758 -758 c13 -14 21 -25 18 -25 -2 0 -15 11
-28 25 -13 14 -21 25 -18 25 2 0 15 -11 28 -25z m7810 22 c0 -2 -12 -14 -27
-28 l-28 -24 24 28 c23 25 31 32 31 24z m-50 -60 c0 -1 -24 -25 -52 -52 l-53
-50 50 53 c46 48 55 57 55 49z m-7685 -47 c21 -22 37 -40 34 -40 -3 0 -23 18
-44 40 -21 22 -37 40 -34 40 3 0 23 -18 44 -40z m135 -145 c35 -36 62 -65 59
-65 -2 0 -34 29 -69 65 -35 36 -62 65 -59 65 2 0 34 -29 69 -65z m7430 62 c0
-1 -28 -29 -62 -62 l-63 -60 60 63 c55 58 65 67 65 59z m-7280 -212 c35 -36
62 -65 59 -65 -2 0 -34 29 -69 65 -35 36 -62 65 -59 65 2 0 34 -29 69 -65z
m7130 62 c0 -1 -28 -29 -62 -62 l-63 -60 60 63 c55 58 65 67 65 59z m-6995
-187 c21 -22 37 -40 34 -40 -3 0 -23 18 -44 40 -21 22 -37 40 -34 40 3 0 23
-18 44 -40z m6835 37 c0 -2 -19 -21 -42 -42 l-43 -40 40 43 c36 39 45 47 45
39z m-6754 -109 l29 -33 -32 29 c-31 28 -38 36 -30 36 2 0 16 -15 33 -32z
m6664 29 c0 -2 -15 -16 -32 -33 l-33 -29 29 33 c28 30 36 37 36 29z m-6350
-279 c294 -218 688 -447 953 -555 21 -9 36 -17 34 -20 -10 -10 -311 137 -490
239 -243 139 -598 388 -732 513 -30 28 -16 19 35 -23 47 -37 137 -107 200
-154z m6235 176 c-75 -69 -303 -239 -455 -341 -273 -181 -537 -321 -850 -448
-158 -64 -438 -160 -445 -153 -2 2 62 26 143 52 402 132 780 315 1142 553 146
97 377 268 460 342 25 22 47 40 50 40 3 0 -17 -20 -45 -45z m-5134 -793 c52
-21 167 -62 256 -92 89 -29 160 -55 158 -57 -10 -10 -493 163 -514 183 -10 10
10 4 100 -34z m456 -157 c-3 -3 -12 -4 -19 -1 -8 3 -5 6 6 6 11 1 17 -2 13 -5z
m2910 0 c-3 -3 -12 -4 -19 -1 -8 3 -5 6 6 6 11 1 17 -2 13 -5z m-2852 -14 c13
-5 14 -9 5 -9 -8 0 -24 4 -35 9 -13 5 -14 9 -5 9 8 0 24 -4 35 -9z m2800 0
c-11 -5 -27 -9 -35 -9 -9 0 -8 4 5 9 11 5 27 9 35 9 9 0 8 -4 -5 -9z m-2748
-16 c-3 -3 -12 -4 -19 -1 -8 3 -5 6 6 6 11 1 17 -2 13 -5z m2690 0 c-3 -3 -12
-4 -19 -1 -8 3 -5 6 6 6 11 1 17 -2 13 -5z m-2632 -14 c13 -5 14 -9 5 -9 -8 0
-24 4 -35 9 -13 5 -14 9 -5 9 8 0 24 -4 35 -9z m2580 0 c-11 -5 -27 -9 -35 -9
-9 0 -8 4 5 9 11 5 27 9 35 9 9 0 8 -4 -5 -9z m-2470 -25 c28 -7 41 -13 30
-13 -11 0 -42 6 -70 13 -27 7 -41 13 -30 13 11 0 43 -6 70 -13z m2408 8 c-7
-2 -19 -2 -25 0 -7 3 -2 5 12 5 14 0 19 -2 13 -5z m-63 -13 c-14 -4 -34 -8
-45 -8 -16 0 -15 2 5 8 14 4 34 8 45 8 16 0 15 -2 -5 -8z m-2257 -17 c-7 -2
-19 -2 -25 0 -7 3 -2 5 12 5 14 0 19 -2 13 -5z m2180 0 c-7 -2 -19 -2 -25 0
-7 3 -2 5 12 5 14 0 19 -2 13 -5z m-2130 -10 c-7 -2 -19 -2 -25 0 -7 3 -2 5
12 5 14 0 19 -2 13 -5z m2080 0 c-7 -2 -19 -2 -25 0 -7 3 -2 5 12 5 14 0 19
-2 13 -5z m-2030 -10 c-7 -2 -19 -2 -25 0 -7 3 -2 5 12 5 14 0 19 -2 13 -5z
m1980 0 c-7 -2 -19 -2 -25 0 -7 3 -2 5 12 5 14 0 19 -2 13 -5z m-1930 -10 c-7
-2 -19 -2 -25 0 -7 3 -2 5 12 5 14 0 19 -2 13 -5z m1880 0 c-7 -2 -19 -2 -25
0 -7 3 -2 5 12 5 14 0 19 -2 13 -5z m-1815 -10 c-10 -2 -26 -2 -35 0 -10 3 -2
5 17 5 19 0 27 -2 18 -5z m1760 0 c-10 -2 -26 -2 -35 0 -10 3 -2 5 17 5 19 0
27 -2 18 -5z m-1690 -10 c-10 -2 -26 -2 -35 0 -10 3 -2 5 17 5 19 0 27 -2 18
-5z m1620 0 c-10 -2 -26 -2 -35 0 -10 3 -2 5 17 5 19 0 27 -2 18 -5z m-1550
-10 c-10 -2 -26 -2 -35 0 -10 3 -2 5 17 5 19 0 27 -2 18 -5z m1480 0 c-10 -2
-26 -2 -35 0 -10 3 -2 5 17 5 19 0 27 -2 18 -5z m-1415 -10 c-7 -2 -21 -2 -30
0 -10 3 -4 5 12 5 17 0 24 -2 18 -5z m1345 0 c-10 -2 -26 -2 -35 0 -10 3 -2 5
17 5 19 0 27 -2 18 -5z m-1240 -10 c-16 -2 -40 -2 -55 0 -16 2 -3 4 27 4 30 0
43 -2 28 -4z m1160 0 c-15 -2 -42 -2 -60 0 -18 2 -6 4 27 4 33 0 48 -2 33 -4z
m-1020 -10 c-15 -2 -42 -2 -60 0 -18 2 -6 4 27 4 33 0 48 -2 33 -4z m890 0
c-16 -2 -40 -2 -55 0 -16 2 -3 4 27 4 30 0 43 -2 28 -4z m-715 -10 c-23 -2
-64 -2 -90 0 -26 2 -7 3 42 3 50 0 71 -1 48 -3z m575 0 c-26 -2 -71 -2 -100 0
-29 2 -8 3 47 3 55 0 79 -1 53 -3z"/>
</g>
</svg>
